<?xml version="1.0" encoding="UTF-8"?><!DOCTYPE svg PUBLIC "-//W3C//DTD SVG 1.1//EN" "http://www.w3.org/Graphics/SVG/1.1/DTD/svg11.dtd"><svg xmlns="http://www.w3.org/2000/svg"><symbol id="icon-behance" viewBox="0 0 512 512"><path d="M254.8 171.8c6.4 8.9 9.6 19.6 9.6 32 0 12.8-3.2 23.1-9.7 30.9 -3.6 4.4-9 8.4-16 12 10.7 3.9 18.8 10.1 24.2 18.5 5.5 8.4 8.2 18.7 8.2 30.7 0 12.4-3.1 23.6-9.3 33.5 -4 6.6-8.9 12.1-14.9 16.5 -6.7 5.1-14.6 8.6-23.7 10.5 -9.1 1.9-19 2.8-29.6 2.8H99.1V149.5h101.4C226.1 149.8 244.2 157.3 254.8 171.8zM140.9 185.9v46.3h51c9.1 0 16.5-1.7 22.2-5.2 5.7-3.5 8.5-9.6 8.5-18.4 0-9.8-3.8-16.2-11.3-19.4 -6.5-2.2-14.7-3.3-24.8-3.3H140.9zM140.9 266.9v55.9h50.9c9.1 0 16.2-1.2 21.2-3.7 9.2-4.6 13.8-13.3 13.8-26.2 0-10.9-4.5-18.4-13.4-22.5 -5-2.3-12-3.5-21-3.6H140.9L140.9 266.9zM396.4 207.3c10.8 4.8 19.8 12.5 26.8 23 6.4 9.2 10.5 19.9 12.4 32.1 1.1 7.1 1.5 17.4 1.3 30.8H323.9c0.6 15.6 6 26.5 16.2 32.7 6.2 3.9 13.6 5.8 22.4 5.8 9.2 0 16.8-2.4 22.5-7.1 3.2-2.6 5.9-6.1 8.4-10.7h41.4c-1.1 9.2-6.1 18.5-15 28 -13.9 15.1-33.4 22.6-58.4 22.6 -20.6 0-38.9-6.4-54.6-19.1 -15.8-12.7-23.7-33.4-23.7-62.1 0-26.9 7.1-47.5 21.4-61.8 14.2-14.3 32.7-21.5 55.5-21.5C373.4 200 385.6 202.4 396.4 207.3zM335.7 242.3c-5.7 5.9-9.3 13.9-10.8 24h69.9c-0.7-10.8-4.3-18.9-10.8-24.5 -6.5-5.6-14.5-8.4-24.1-8.4C349.5 233.4 341.4 236.4 335.7 242.3zM402.8 161.5h-91.2V182.7h91.2V161.5z"/></symbol><symbol id="icon-email" viewBox="0 0 512 512"><path d="M101.3 141.6v228.9h0.3 308.4 0.8V141.6H101.3zM375.7 167.8l-119.7 91.5 -119.6-91.5H375.7zM127.6 194.1l64.1 49.1 -64.1 64.1V194.1zM127.8 344.2l84.9-84.9 43.2 33.1 43-32.9 84.7 84.7L127.8 344.2 127.8 344.2zM384.4 307.8l-64.4-64.4 64.4-49.3V307.8z"/></symbol><symbol id="icon-facebook" viewBox="0 0 512 512"><path d="M211.9 197.4h-36.7v59.9h36.7V433.1h70.5V256.5h49.2l5.2-59.1h-54.4c0 0 0-22.1 0-33.7 0-13.9 2.8-19.5 16.3-19.5 10.9 0 38.2 0 38.2 0V82.9c0 0-40.2 0-48.8 0 -52.5 0-76.1 23.1-76.1 67.3C211.9 188.8 211.9 197.4 211.9 197.4z"/></symbol><symbol id="icon-github" viewBox="0 0 512 512"><path d="M256 70.7c-102.6 0-185.9 83.2-185.9 185.9 0 82.1 53.3 151.8 127.1 176.4 9.3 1.7 12.3-4 12.3-8.9V389.4c-51.7 11.3-62.5-21.9-62.5-21.9 -8.4-21.5-20.6-27.2-20.6-27.2 -16.9-11.5 1.3-11.3 1.3-11.3 18.7 1.3 28.5 19.2 28.5 19.2 16.6 28.4 43.5 20.2 54.1 15.4 1.7-12 6.5-20.2 11.8-24.9 -41.3-4.7-84.7-20.6-84.7-91.9 0-20.3 7.3-36.9 19.2-49.9 -1.9-4.7-8.3-23.6 1.8-49.2 0 0 15.6-5 51.1 19.1 14.8-4.1 30.7-6.2 46.5-6.3 15.8 0.1 31.7 2.1 46.6 6.3 35.5-24 51.1-19.1 51.1-19.1 10.1 25.6 3.8 44.5 1.8 49.2 11.9 13 19.1 29.6 19.1 49.9 0 71.4-43.5 87.1-84.9 91.7 6.7 5.8 12.8 17.1 12.8 34.4 0 24.9 0 44.9 0 51 0 4.9 3 10.7 12.4 8.9 73.8-24.6 127-94.3 127-176.4C441.9 153.9 358.6 70.7 256 70.7z"/></symbol><symbol id="icon-linkedin" viewBox="0 0 512 512"><path d="M186.4 142.4c0 19-15.3 34.5-34.2 34.5 -18.9 0-34.2-15.4-34.2-34.5 0-19 15.3-34.5 34.2-34.5C171.1 107.9 186.4 123.4 186.4 142.4zM181.4 201.3h-57.8V388.1h57.8V201.3zM273.8 201.3h-55.4V388.1h55.4c0 0 0-69.3 0-98 0-26.3 12.1-41.9 35.2-41.9 21.3 0 31.5 15 31.5 41.9 0 26.9 0 98 0 98h57.5c0 0 0-68.2 0-118.3 0-50-28.3-74.2-68-74.2 -39.6 0-56.3 30.9-56.3 30.9v-25.2H273.8z"/></symbol><symbol id="icon-tumblr" viewBox="0 0 512 512"><path d="M210.8 80.3c-2.3 18.3-6.4 33.4-12.4 45.2 -6 11.9-13.9 22-23.9 30.5 -9.9 8.5-21.8 14.9-35.7 19.5v50.6h38.9v124.5c0 16.2 1.7 28.6 5.1 37.1 3.4 8.5 9.5 16.6 18.3 24.2 8.8 7.6 19.4 13.4 31.9 17.5 12.5 4.1 26.8 6.1 43 6.1 14.3 0 27.6-1.4 39.9-4.3 12.3-2.9 26-7.9 41.2-15v-55.9c-17.8 11.7-35.7 17.5-53.7 17.5 -10.1 0-19.1-2.4-27-7.1 -5.9-3.5-10-8.2-12.2-14 -2.2-5.8-3.3-19.1-3.3-39.7v-91.1H345.5v-55.8h-84.4v-90H210.8z"/></symbol><symbol id="icon-twitter" viewBox="0 0 512 512"><path d="M419.6 168.6c-11.7 5.2-24.2 8.7-37.4 10.2 13.4-8.1 23.8-20.8 28.6-36 -12.6 7.5-26.5 12.9-41.3 15.8 -11.9-12.6-28.8-20.6-47.5-20.6 -42 0-72.9 39.2-63.4 79.9 -54.1-2.7-102.1-28.6-134.2-68 -17 29.2-8.8 67.5 20.1 86.9 -10.7-0.3-20.7-3.3-29.5-8.1 -0.7 30.2 20.9 58.4 52.2 64.6 -9.2 2.5-19.2 3.1-29.4 1.1 8.3 25.9 32.3 44.7 60.8 45.2 -27.4 21.4-61.8 31-96.4 27 28.8 18.5 63 29.2 99.8 29.2 120.8 0 189.1-102.1 185-193.6C399.9 193.1 410.9 181.7 419.6 168.6z"/></symbol><symbol id="music-next" viewBox="0 0 48 48"><path d="M12 36l17-12-17-12v24zm20-24v24h4V12h-4z"/><path d="M0 0h48v48H0z" fill="none"/></symbol><symbol id="music-pause" viewBox="0 0 48 48"><path d="M12 38h8V10h-8v28zm16-28v28h8V10h-8z"/><path d="M0 0h48v48H0z" fill="none"/></symbol><symbol id="music-play" viewBox="0 0 48 48"><path d="M-838-2232H562v3600H-838z" fill="none"/><path d="M16 10v28l22-14z"/><path d="M0 0h48v48H0z" fill="none"/></symbol><symbol id="music-prev" viewBox="0 0 48 48"><path d="M12 12h4v24h-4zm7 12l17 12V12z"/><path d="M0 0h48v48H0z" fill="none"/></symbol></svg>