<?xml version="1.0" encoding="UTF-8"?><!DOCTYPE svg PUBLIC "-//W3C//DTD SVG 1.1//EN" "http://www.w3.org/Graphics/SVG/1.1/DTD/svg11.dtd"><svg xmlns="http://www.w3.org/2000/svg"><symbol id="icon-behance" viewBox="0 0 53.175 35.511">
	<path d="M20.158,10.917c0-3.107-2.111-3.107-2.111-3.107H9.35v6.666h8.158C18.918,14.477,20.158,14.026,20.158,10.917 M11.85,10.311
		h5.751c0.029,0.123,0.057,0.317,0.057,0.607c0,0.529-0.046,0.863-0.089,1.058c-0.019,0.001-0.039,0.001-0.061,0.001H11.85V10.311z"/>
	<path d="M18.152,32.378c0.881,0,7.021-0.211,8.855-5.512c0.317,0.955,0.767,1.952,1.38,2.918c-2.451,3.881-7.105,5.094-10.235,5.094
		c-0.059,0-0.104-0.001-0.135-0.001H2.5c-1.381,0-2.5-1.118-2.5-2.5V2.5C0,1.119,1.12,0,2.5,0h15.547C24.599,0,29,4.201,29,10.456
		c0,1.29-0.221,2.402-0.588,3.361c-0.181,0.305-0.351,0.609-0.5,0.907c-0.108,0.219-0.209,0.436-0.305,0.652
		c-0.084,0.125-0.169,0.25-0.258,0.368c0.023,0.024,0.048,0.049,0.072,0.073c-0.437,1.079-0.715,2.11-0.892,2.999
		c-0.78-1.45-2.15-2.674-4.586-2.674c0,0,4.556-0.339,4.556-5.686c0-5.348-3.728-7.955-8.453-7.955H2.5v29.876h15.547
		C18.047,32.377,18.083,32.378,18.152,32.378"/>
	<path d="M18.05,19.084h-0.003H9.351v7.983h8.296c1.247-0.034,3.55-0.426,3.55-3.88C21.196,19.123,18.166,19.084,18.05,19.084
		 M17.612,24.567h-5.762v-2.983h6.148c0.463,0.054,0.698,0.593,0.698,1.604C18.696,24.518,18.378,24.546,17.612,24.567"/>
	<path d="M36.745,7.94c-1.843,0.378-3.358,1.049-4.603,1.885c-0.53-0.458-0.874-1.128-0.874-1.885V4.261c0-1.381,1.119-2.5,2.5-2.5
		h12.327c1.381,0,2.5,1.119,2.5,2.5V7.94c0,0.695-0.285,1.323-0.743,1.777c-1.246-0.851-2.687-1.441-4.305-1.777h2.548V4.261H33.769
		V7.94H36.745z"/>
	<path d="M35.056,19.084c0,0,0.644-4.608,5.259-4.608c4.614,0,4.556,4.608,4.556,4.608H35.056"/>
	<path d="M27.421,15.817c0.06-0.146,0.121-0.293,0.187-0.441c0.313-0.464,0.586-0.984,0.805-1.559
		c0.836-1.408,2.031-2.849,3.731-3.991c0.438,0.378,1.002,0.614,1.626,0.614h3.265c-5.185,1.177-7.14,5.211-7.873,8.086
		c-0.373-0.912-0.896-1.821-1.644-2.611C27.485,15.882,27.453,15.85,27.421,15.817"/>
	<path d="M49.899,11.521c-0.609-0.696-1.297-1.293-2.047-1.805c-0.451,0.447-1.071,0.724-1.757,0.724h-2.781
		c8.662,2.038,7.281,12.631,7.281,12.631H35.114c0,4.927,4.144,5.203,5.074,5.203c0.117,0,0.185-0.004,0.185-0.004
		c4.966,0,4.789-3.214,4.789-3.214h5.259c0,7.502-7.905,7.954-9.813,7.954c-0.262,0-0.411-0.009-0.411-0.009
		c-6.474,0-9.31-3.181-10.547-6.185c-0.285,1.132-0.722,2.111-1.262,2.967c0.375,0.591,0.807,1.172,1.321,1.724
		c2.463,2.639,5.971,3.982,10.428,3.994c0.09,0.003,0.251,0.009,0.471,0.009c5.68,0,12.313-2.738,12.313-10.454
		c0-0.277-0.045-0.543-0.128-0.791c0.144-0.265,0.24-0.558,0.281-0.87C53.113,23.102,53.967,16.153,49.899,11.521 M40.373,25.771
		c-0.057,0-0.111,0.002-0.166,0.006c-0.512-0.001-0.922-0.077-1.25-0.205h3.008C41.582,25.691,41.048,25.771,40.373,25.771"/>
	<path d="M28.718,21.581c0,0-0.175,2.547,0.933,5.236c-0.285,1.133-0.723,2.111-1.263,2.967c-0.613-0.966-1.063-1.962-1.381-2.917
		c0.325-0.94,0.531-2.02,0.531-3.307c0,0,0.136-2.618-1.008-4.745c0.177-0.889,0.455-1.919,0.891-2.999
		c0.032,0.032,0.064,0.065,0.097,0.098c0.747,0.79,1.271,1.7,1.644,2.612C28.718,20.266,28.718,21.581,28.718,21.581"/>
	<path d="M27.607,15.375c0.095-0.216,0.196-0.434,0.305-0.652c0.149-0.298,0.319-0.602,0.5-0.907
		C28.192,14.392,27.922,14.912,27.607,15.375"/>
	<path d="M33.77,10.44c-0.624,0-1.188-0.237-1.626-0.615c1.243-0.836,2.759-1.507,4.602-1.885h6.803
		c1.618,0.336,3.059,0.926,4.306,1.777c-0.452,0.446-1.072,0.723-1.758,0.723h-2.78c-3.118-0.339-1.955-0.339-3.118-0.339
		c-1.172,0-2.218,0.125-3.163,0.339H33.77z"/>
</symbol><symbol id="icon-email" viewBox="0 0 47.192 34.182">
	<path d="M3,3h41.193v28.183H3V3z M0,0v3v28.182v3h3h41.193h2.999V0H0z"/>
	<path d="M39.958,10.612l-15.514,9.559c-0.26,0.16-0.554,0.24-0.849,0.24c-0.294,0-0.588-0.08-0.848-0.24L7.234,10.612
		c-0.76-0.468-0.996-1.464-0.527-2.223C7.175,7.629,8.171,7.394,8.93,7.86l14.666,9.037L38.262,7.86
		c0.761-0.468,1.757-0.231,2.225,0.529C40.954,9.148,40.718,10.145,39.958,10.612"/>
</symbol><symbol id="icon-github" viewBox="0 0 45.335 51.972">
	<path d="M38.354,3c0.274,0,0.521,0.035,0.736,0.104c1.119,2.809,1.219,5.345,0.298,7.607c1.964,2.114,2.946,4.675,2.946,7.68
		c0,2.114-0.254,3.985-0.764,5.614c-0.509,1.627-1.169,2.932-1.975,3.915c-0.81,0.98-1.815,1.808-3.021,2.478
		c-1.205,0.674-2.374,1.158-3.504,1.455c-1.134,0.301-2.407,0.523-3.824,0.674c1.292,1.116,1.94,2.882,1.94,5.294v11.151H16.939
		v-8.616l-0.858,0.15c-0.489,0.088-1.096,0.131-1.819,0.131c-0.082,0-0.165,0-0.25-0.001c-0.831-0.014-1.696-0.099-2.59-0.262
		c-0.896-0.161-1.727-0.534-2.498-1.117c-0.771-0.586-1.319-1.35-1.64-2.293L6.91,36.105c-0.247-0.571-0.639-1.207-1.175-1.901
		c-0.534-0.697-1.075-1.169-1.62-1.417L3.854,32.6c-0.174-0.123-0.335-0.272-0.484-0.446c-0.15-0.176-0.262-0.35-0.336-0.523
		c-0.076-0.175-0.013-0.318,0.186-0.429c0.199-0.112,0.559-0.168,1.081-0.168l0.746,0.111c0.497,0.101,1.111,0.397,1.846,0.896
		c0.733,0.496,1.335,1.142,1.808,1.937c0.572,1.02,1.261,1.797,2.069,2.331c0.807,0.534,1.623,0.804,2.443,0.804
		c0.82,0,1.529-0.063,2.125-0.187c0.597-0.125,1.156-0.311,1.678-0.561c0.224-1.665,0.832-2.946,1.826-3.839
		c-1.417-0.15-2.69-0.373-3.821-0.674c-1.131-0.297-2.3-0.781-3.504-1.455c-1.206-0.67-2.208-1.504-3.003-2.498
		c-0.796-0.994-1.448-2.299-1.958-3.915c-0.51-1.616-0.764-3.48-0.764-5.594c0-3.008,0.983-5.568,2.948-7.68
		C7.818,8.449,7.904,5.913,8.999,3.104c0.206-0.064,0.44-0.096,0.703-0.096c0.657,0,1.491,0.2,2.503,0.599
		c1.417,0.561,2.456,1.039,3.115,1.437c0.66,0.397,1.187,0.733,1.585,1.005c2.313-0.645,4.697-0.967,7.16-0.967
		c2.46,0,4.847,0.322,7.157,0.967l1.417-0.894c0.97-0.596,2.113-1.144,3.433-1.64C36.979,3.171,37.74,3,38.354,3 M38.354,0L38.354,0
		c-0.989,0-2.083,0.232-3.344,0.709c-1.483,0.558-2.813,1.195-3.943,1.891L30.71,2.825c-2.155-0.494-4.386-0.743-6.646-0.743
		c-2.253,0-4.477,0.248-6.629,0.739c-0.179-0.111-0.369-0.227-0.567-0.347C16.065,1.99,14.9,1.448,13.309,0.817
		c-1.383-0.545-2.562-0.809-3.608-0.809c-0.563,0-1.097,0.078-1.59,0.23L6.728,0.666l-0.525,1.35
		c-1.108,2.846-1.376,5.543-0.805,8.043c-1.731,2.393-2.606,5.188-2.606,8.332c0,2.411,0.304,4.597,0.903,6.496
		c0.378,1.198,0.835,2.277,1.367,3.228l-0.317-0.049l-0.221-0.032H4.3c-1.086,0-1.874,0.171-2.553,0.554
		c-1.541,0.863-2.159,2.649-1.464,4.242c0.183,0.432,0.46,0.871,0.81,1.278c0.315,0.365,0.659,0.681,1.028,0.941l0.247,0.177
		l0.238,0.17l0.265,0.121c-0.003,0,0.177,0.112,0.483,0.513c0.479,0.62,0.701,1.031,0.803,1.269l0.332,0.763
		c0.523,1.455,1.404,2.66,2.62,3.585c1.153,0.872,2.423,1.437,3.781,1.682c1.021,0.186,2.049,0.29,3.049,0.308v5.337v3h3h14.247h3v-3
		V37.82c0-1.11-0.113-2.135-0.337-3.07c1.36-0.359,2.771-0.942,4.187-1.732c1.522-0.846,2.827-1.92,3.873-3.189
		c1.055-1.285,1.903-2.941,2.524-4.927c0.598-1.911,0.9-4.101,0.9-6.51c0-3.143-0.875-5.939-2.605-8.333
		c0.568-2.509,0.285-5.213-0.853-8.065L41.354,0.68l-1.347-0.433C39.495,0.083,38.939,0,38.354,0"/>
</symbol><symbol id="icon-linkedin" viewBox="0 0 48.331 46.196">
	<path d="M8.133,3c3.106,0,5.016,2.024,5.074,4.683c0,2.607-1.968,4.686-5.129,4.686H8.015C4.972,12.369,3,10.287,3,7.683
		C3,5.024,5.03,3,8.133,3 M34.883,15.436c5.97,0,10.448,3.875,10.448,12.208v15.554h-9.073V28.684c0-3.646-1.316-6.134-4.595-6.134
		c-2.514,0-4.003,1.679-4.657,3.299c-0.241,0.58-0.3,1.388-0.3,2.196v15.152h-9.073c0,0,0.12-24.581,0-27.123h9.073v3.845
		C27.911,18.072,30.063,15.436,34.883,15.436 M12.614,43.197H3.538V16.076h9.076V43.197z M8.133,0C3.497,0,0,3.303,0,7.683
		c0,2.255,0.913,4.225,2.423,5.606c-1.105,0.443-1.885,1.523-1.885,2.786v27.123c0,1.655,1.343,3,3,3h9.076
		c1.05,0,1.974-0.54,2.51-1.356c0.11,0.168,0.238,0.327,0.383,0.472c0.563,0.565,1.328,0.885,2.126,0.885h9.073c1.656,0,3-1.345,3-3
		V28.045c0-0.792,0.072-1.049,0.082-1.076c0.381-0.94,1.012-1.419,1.875-1.419c0.596,0,1.595,0,1.595,3.134v14.514
		c0,1.655,1.343,3,3,3h9.073c1.656,0,3-1.345,3-3V27.644c0-11.213-6.947-15.208-13.448-15.208c-2.562,0-4.567,0.611-6.124,1.451
		c-0.537-0.503-1.259-0.812-2.053-0.812h-9.073c-0.82,0-1.605,0.336-2.171,0.93c-0.126,0.132-0.239,0.275-0.338,0.426
		c-0.332-0.506-0.813-0.905-1.38-1.136c1.535-1.381,2.463-3.353,2.463-5.612c0-0.022,0-0.044-0.001-0.066
		C16.109,3.203,12.713,0,8.133,0"/>
</symbol><symbol id="icon-tumblr" viewBox="0 0 29.619 43.605">
	<path d="M16.448,3v8.694h8.695v6.713h-8.695v9.647c0,2.177-0.026,3.442,0.206,4.054c0.222,0.62,0.801,1.259,1.428,1.627
		c0.836,0.496,1.781,0.749,2.851,0.749c1.903,0,3.802-0.62,5.687-1.859v5.935c-1.605,0.754-3.062,1.285-4.368,1.592
		c-1.299,0.297-2.707,0.454-4.223,0.454c-1.716,0-2.736-0.218-4.057-0.646c-1.318-0.441-2.448-1.061-3.38-1.856
		c-0.932-0.809-1.578-1.659-1.938-2.565c-0.361-0.903-0.545-2.217-0.545-3.938V18.407H3v-5.325c1.475-0.477,3.19-1.164,4.244-2.062
		c1.055-0.899,1.898-1.973,2.53-3.231C10.421,6.537,10.856,4.938,11.101,3H16.448 M16.448,0h-5.347C9.59,0,8.315,1.124,8.125,2.623
		C7.922,4.224,7.58,5.499,7.108,6.414C6.641,7.342,6.054,8.093,5.299,8.736c-0.256,0.218-1.08,0.798-3.223,1.491
		C0.839,10.628,0,11.781,0,13.082v5.325c0,1.657,1.343,3,3,3h2.108v10.191c0,2.119,0.248,3.771,0.758,5.051
		c0.534,1.34,1.462,2.592,2.757,3.718c1.237,1.058,2.709,1.871,4.394,2.437c1.536,0.499,2.896,0.802,5.011,0.802
		c1.711,0,3.357-0.178,4.893-0.53c1.517-0.355,3.185-0.96,4.974-1.801c1.053-0.494,1.725-1.552,1.725-2.715v-5.935
		c0-1.103-0.604-2.115-1.576-2.64c-0.445-0.24-0.936-0.36-1.424-0.36c-0.576,0-1.149,0.166-1.647,0.493
		c-1.398,0.919-2.72,1.366-4.039,1.366c-0.522,0-0.941-0.104-1.319-0.329c-0.041-0.023-0.088-0.063-0.125-0.1
		c-0.043-0.446-0.042-1.436-0.04-2.396v-0.604v-6.647h5.695c1.656,0,3-1.343,3-3v-6.713c0-1.657-1.344-3-3-3h-5.695V3
		C19.448,1.343,18.105,0,16.448,0"/>
</symbol><symbol id="icon-twitter" viewBox="0 0 51.572 43.039">
	<path d="M34.551,3c2.688,0,5.12,1.139,6.836,2.943c2.111-0.415,4.124-1.181,5.934-2.249c-0.695,2.184-2.178,4.012-4.124,5.169
		c1.898-0.232,3.708-0.742,5.376-1.484c-1.252,1.881-2.849,3.525-4.658,4.848l0.023,1.205c0,12.354-9.411,26.607-26.613,26.607
		C12.043,40.039,7.13,38.49,3,35.82c0.718,0.095,1.466,0.142,2.225,0.142c4.385,0,8.414-1.507,11.613-4.011
		c-4.1-0.071-7.53-2.783-8.735-6.492c0.576,0.119,1.157,0.166,1.762,0.166c0.855,0,1.692-0.117,2.457-0.325
		c-4.266-0.86-7.488-4.634-7.488-9.156v-0.118c1.252,0.7,2.688,1.115,4.219,1.163C6.549,15.52,4.905,12.642,4.905,9.42
		c0-1.714,0.463-3.334,1.276-4.705c4.586,5.655,11.493,9.363,19.261,9.761c-0.167-0.676-0.232-1.394-0.232-2.136
		C25.21,7.195,29.382,3,34.551,3 M34.551,0c-6.377,0-11.64,4.862-12.275,11.073c-5.389-1.052-10.284-3.956-13.764-8.248
		c-0.572-0.705-1.43-1.11-2.33-1.11c-0.073,0-0.146,0.003-0.219,0.008C4.983,1.795,4.101,2.34,3.6,3.185
		C2.491,5.055,1.905,7.211,1.905,9.42c0,1.552,0.288,3.061,0.829,4.462c-0.569,0.557-0.9,1.327-0.9,2.143v0.118
		c0,3.241,1.275,6.247,3.388,8.48c-0.165,0.568-0.161,1.182,0.028,1.763c0.793,2.441,2.293,4.509,4.228,6
		c-1.369,0.381-2.795,0.575-4.253,0.575c-0.63,0-1.246-0.038-1.831-0.115c-0.133-0.019-0.265-0.027-0.396-0.027
		c-1.242,0-2.375,0.773-2.813,1.964C-0.3,36.1,0.193,37.577,1.371,38.339c4.756,3.074,10.272,4.699,15.953,4.699
		c18.438,0,29.494-14.894,29.612-29.374c1.6-1.35,2.985-2.9,4.133-4.624c0.74-1.111,0.656-2.577-0.205-3.597
		c-0.218-0.258-0.473-0.473-0.751-0.639c0.022-0.067,0.044-0.134,0.066-0.202c0.376-1.185-0.018-2.48-0.99-3.255
		c-0.544-0.433-1.205-0.654-1.87-0.654c-0.525,0-1.052,0.138-1.524,0.417c-1.119,0.661-2.318,1.178-3.577,1.545
		C40.039,0.952,37.328,0,34.551,0"/>
</symbol><symbol id="music-next" viewBox="0 0 48 48"><path d="M12 36l17-12-17-12v24zm20-24v24h4V12h-4z"/><path d="M0 0h48v48H0z" fill="none"/></symbol><symbol id="music-pause" viewBox="0 0 48 48"><path d="M12 38h8V10h-8v28zm16-28v28h8V10h-8z"/><path d="M0 0h48v48H0z" fill="none"/></symbol><symbol id="music-play" viewBox="0 0 48 48"><path d="M-838-2232H562v3600H-838z" fill="none"/><path d="M16 10v28l22-14z"/><path d="M0 0h48v48H0z" fill="none"/></symbol><symbol id="music-prev" viewBox="0 0 48 48"><path d="M12 12h4v24h-4zm7 12l17 12V12z"/><path d="M0 0h48v48H0z" fill="none"/></symbol></svg>