<svg xmlns="http://www.w3.org/2000/svg" viewBox="0 0 29.619 43.605">
	<path d="M16.448,3v8.694h8.695v6.713h-8.695v9.647c0,2.177-0.026,3.442,0.206,4.054c0.222,0.62,0.801,1.259,1.428,1.627
		c0.836,0.496,1.781,0.749,2.851,0.749c1.903,0,3.802-0.62,5.687-1.859v5.935c-1.605,0.754-3.062,1.285-4.368,1.592
		c-1.299,0.297-2.707,0.454-4.223,0.454c-1.716,0-2.736-0.218-4.057-0.646c-1.318-0.441-2.448-1.061-3.38-1.856
		c-0.932-0.809-1.578-1.659-1.938-2.565c-0.361-0.903-0.545-2.217-0.545-3.938V18.407H3v-5.325c1.475-0.477,3.19-1.164,4.244-2.062
		c1.055-0.899,1.898-1.973,2.53-3.231C10.421,6.537,10.856,4.938,11.101,3H16.448 M16.448,0h-5.347C9.59,0,8.315,1.124,8.125,2.623
		C7.922,4.224,7.58,5.499,7.108,6.414C6.641,7.342,6.054,8.093,5.299,8.736c-0.256,0.218-1.08,0.798-3.223,1.491
		C0.839,10.628,0,11.781,0,13.082v5.325c0,1.657,1.343,3,3,3h2.108v10.191c0,2.119,0.248,3.771,0.758,5.051
		c0.534,1.34,1.462,2.592,2.757,3.718c1.237,1.058,2.709,1.871,4.394,2.437c1.536,0.499,2.896,0.802,5.011,0.802
		c1.711,0,3.357-0.178,4.893-0.53c1.517-0.355,3.185-0.96,4.974-1.801c1.053-0.494,1.725-1.552,1.725-2.715v-5.935
		c0-1.103-0.604-2.115-1.576-2.64c-0.445-0.24-0.936-0.36-1.424-0.36c-0.576,0-1.149,0.166-1.647,0.493
		c-1.398,0.919-2.72,1.366-4.039,1.366c-0.522,0-0.941-0.104-1.319-0.329c-0.041-0.023-0.088-0.063-0.125-0.1
		c-0.043-0.446-0.042-1.436-0.04-2.396v-0.604v-6.647h5.695c1.656,0,3-1.343,3-3v-6.713c0-1.657-1.344-3-3-3h-5.695V3
		C19.448,1.343,18.105,0,16.448,0" />
</svg>
