<svg xmlns="http://www.w3.org/2000/svg" viewBox="0 0 45.335 51.972">
	<path d="M38.354,3c0.274,0,0.521,0.035,0.736,0.104c1.119,2.809,1.219,5.345,0.298,7.607c1.964,2.114,2.946,4.675,2.946,7.68
		c0,2.114-0.254,3.985-0.764,5.614c-0.509,1.627-1.169,2.932-1.975,3.915c-0.81,0.98-1.815,1.808-3.021,2.478
		c-1.205,0.674-2.374,1.158-3.504,1.455c-1.134,0.301-2.407,0.523-3.824,0.674c1.292,1.116,1.94,2.882,1.94,5.294v11.151H16.939
		v-8.616l-0.858,0.15c-0.489,0.088-1.096,0.131-1.819,0.131c-0.082,0-0.165,0-0.25-0.001c-0.831-0.014-1.696-0.099-2.59-0.262
		c-0.896-0.161-1.727-0.534-2.498-1.117c-0.771-0.586-1.319-1.35-1.64-2.293L6.91,36.105c-0.247-0.571-0.639-1.207-1.175-1.901
		c-0.534-0.697-1.075-1.169-1.62-1.417L3.854,32.6c-0.174-0.123-0.335-0.272-0.484-0.446c-0.15-0.176-0.262-0.35-0.336-0.523
		c-0.076-0.175-0.013-0.318,0.186-0.429c0.199-0.112,0.559-0.168,1.081-0.168l0.746,0.111c0.497,0.101,1.111,0.397,1.846,0.896
		c0.733,0.496,1.335,1.142,1.808,1.937c0.572,1.02,1.261,1.797,2.069,2.331c0.807,0.534,1.623,0.804,2.443,0.804
		c0.82,0,1.529-0.063,2.125-0.187c0.597-0.125,1.156-0.311,1.678-0.561c0.224-1.665,0.832-2.946,1.826-3.839
		c-1.417-0.15-2.69-0.373-3.821-0.674c-1.131-0.297-2.3-0.781-3.504-1.455c-1.206-0.67-2.208-1.504-3.003-2.498
		c-0.796-0.994-1.448-2.299-1.958-3.915c-0.51-1.616-0.764-3.48-0.764-5.594c0-3.008,0.983-5.568,2.948-7.68
		C7.818,8.449,7.904,5.913,8.999,3.104c0.206-0.064,0.44-0.096,0.703-0.096c0.657,0,1.491,0.2,2.503,0.599
		c1.417,0.561,2.456,1.039,3.115,1.437c0.66,0.397,1.187,0.733,1.585,1.005c2.313-0.645,4.697-0.967,7.16-0.967
		c2.46,0,4.847,0.322,7.157,0.967l1.417-0.894c0.97-0.596,2.113-1.144,3.433-1.64C36.979,3.171,37.74,3,38.354,3 M38.354,0L38.354,0
		c-0.989,0-2.083,0.232-3.344,0.709c-1.483,0.558-2.813,1.195-3.943,1.891L30.71,2.825c-2.155-0.494-4.386-0.743-6.646-0.743
		c-2.253,0-4.477,0.248-6.629,0.739c-0.179-0.111-0.369-0.227-0.567-0.347C16.065,1.99,14.9,1.448,13.309,0.817
		c-1.383-0.545-2.562-0.809-3.608-0.809c-0.563,0-1.097,0.078-1.59,0.23L6.728,0.666l-0.525,1.35
		c-1.108,2.846-1.376,5.543-0.805,8.043c-1.731,2.393-2.606,5.188-2.606,8.332c0,2.411,0.304,4.597,0.903,6.496
		c0.378,1.198,0.835,2.277,1.367,3.228l-0.317-0.049l-0.221-0.032H4.3c-1.086,0-1.874,0.171-2.553,0.554
		c-1.541,0.863-2.159,2.649-1.464,4.242c0.183,0.432,0.46,0.871,0.81,1.278c0.315,0.365,0.659,0.681,1.028,0.941l0.247,0.177
		l0.238,0.17l0.265,0.121c-0.003,0,0.177,0.112,0.483,0.513c0.479,0.62,0.701,1.031,0.803,1.269l0.332,0.763
		c0.523,1.455,1.404,2.66,2.62,3.585c1.153,0.872,2.423,1.437,3.781,1.682c1.021,0.186,2.049,0.29,3.049,0.308v5.337v3h3h14.247h3v-3
		V37.82c0-1.11-0.113-2.135-0.337-3.07c1.36-0.359,2.771-0.942,4.187-1.732c1.522-0.846,2.827-1.92,3.873-3.189
		c1.055-1.285,1.903-2.941,2.524-4.927c0.598-1.911,0.9-4.101,0.9-6.51c0-3.143-0.875-5.939-2.605-8.333
		c0.568-2.509,0.285-5.213-0.853-8.065L41.354,0.68l-1.347-0.433C39.495,0.083,38.939,0,38.354,0" />
</svg>
