<svg xmlns="http://www.w3.org/2000/svg" viewBox="0 0 51.572 43.039">
	<path d="M34.551,3c2.688,0,5.12,1.139,6.836,2.943c2.111-0.415,4.124-1.181,5.934-2.249c-0.695,2.184-2.178,4.012-4.124,5.169
		c1.898-0.232,3.708-0.742,5.376-1.484c-1.252,1.881-2.849,3.525-4.658,4.848l0.023,1.205c0,12.354-9.411,26.607-26.613,26.607
		C12.043,40.039,7.13,38.49,3,35.82c0.718,0.095,1.466,0.142,2.225,0.142c4.385,0,8.414-1.507,11.613-4.011
		c-4.1-0.071-7.53-2.783-8.735-6.492c0.576,0.119,1.157,0.166,1.762,0.166c0.855,0,1.692-0.117,2.457-0.325
		c-4.266-0.86-7.488-4.634-7.488-9.156v-0.118c1.252,0.7,2.688,1.115,4.219,1.163C6.549,15.52,4.905,12.642,4.905,9.42
		c0-1.714,0.463-3.334,1.276-4.705c4.586,5.655,11.493,9.363,19.261,9.761c-0.167-0.676-0.232-1.394-0.232-2.136
		C25.21,7.195,29.382,3,34.551,3 M34.551,0c-6.377,0-11.64,4.862-12.275,11.073c-5.389-1.052-10.284-3.956-13.764-8.248
		c-0.572-0.705-1.43-1.11-2.33-1.11c-0.073,0-0.146,0.003-0.219,0.008C4.983,1.795,4.101,2.34,3.6,3.185
		C2.491,5.055,1.905,7.211,1.905,9.42c0,1.552,0.288,3.061,0.829,4.462c-0.569,0.557-0.9,1.327-0.9,2.143v0.118
		c0,3.241,1.275,6.247,3.388,8.48c-0.165,0.568-0.161,1.182,0.028,1.763c0.793,2.441,2.293,4.509,4.228,6
		c-1.369,0.381-2.795,0.575-4.253,0.575c-0.63,0-1.246-0.038-1.831-0.115c-0.133-0.019-0.265-0.027-0.396-0.027
		c-1.242,0-2.375,0.773-2.813,1.964C-0.3,36.1,0.193,37.577,1.371,38.339c4.756,3.074,10.272,4.699,15.953,4.699
		c18.438,0,29.494-14.894,29.612-29.374c1.6-1.35,2.985-2.9,4.133-4.624c0.74-1.111,0.656-2.577-0.205-3.597
		c-0.218-0.258-0.473-0.473-0.751-0.639c0.022-0.067,0.044-0.134,0.066-0.202c0.376-1.185-0.018-2.48-0.99-3.255
		c-0.544-0.433-1.205-0.654-1.87-0.654c-0.525,0-1.052,0.138-1.524,0.417c-1.119,0.661-2.318,1.178-3.577,1.545
		C40.039,0.952,37.328,0,34.551,0" />
</svg>
