<svg xmlns="http://www.w3.org/2000/svg" viewBox="0 0 53.175 35.511">
	<path d="M20.158,10.917c0-3.107-2.111-3.107-2.111-3.107H9.35v6.666h8.158C18.918,14.477,20.158,14.026,20.158,10.917 M11.85,10.311
		h5.751c0.029,0.123,0.057,0.317,0.057,0.607c0,0.529-0.046,0.863-0.089,1.058c-0.019,0.001-0.039,0.001-0.061,0.001H11.85V10.311z" />
	<path d="M18.152,32.378c0.881,0,7.021-0.211,8.855-5.512c0.317,0.955,0.767,1.952,1.38,2.918c-2.451,3.881-7.105,5.094-10.235,5.094
		c-0.059,0-0.104-0.001-0.135-0.001H2.5c-1.381,0-2.5-1.118-2.5-2.5V2.5C0,1.119,1.12,0,2.5,0h15.547C24.599,0,29,4.201,29,10.456
		c0,1.29-0.221,2.402-0.588,3.361c-0.181,0.305-0.351,0.609-0.5,0.907c-0.108,0.219-0.209,0.436-0.305,0.652
		c-0.084,0.125-0.169,0.25-0.258,0.368c0.023,0.024,0.048,0.049,0.072,0.073c-0.437,1.079-0.715,2.11-0.892,2.999
		c-0.78-1.45-2.15-2.674-4.586-2.674c0,0,4.556-0.339,4.556-5.686c0-5.348-3.728-7.955-8.453-7.955H2.5v29.876h15.547
		C18.047,32.377,18.083,32.378,18.152,32.378" />
	<path d="M18.05,19.084h-0.003H9.351v7.983h8.296c1.247-0.034,3.55-0.426,3.55-3.88C21.196,19.123,18.166,19.084,18.05,19.084
		 M17.612,24.567h-5.762v-2.983h6.148c0.463,0.054,0.698,0.593,0.698,1.604C18.696,24.518,18.378,24.546,17.612,24.567" />
	<path d="M36.745,7.94c-1.843,0.378-3.358,1.049-4.603,1.885c-0.53-0.458-0.874-1.128-0.874-1.885V4.261c0-1.381,1.119-2.5,2.5-2.5
		h12.327c1.381,0,2.5,1.119,2.5,2.5V7.94c0,0.695-0.285,1.323-0.743,1.777c-1.246-0.851-2.687-1.441-4.305-1.777h2.548V4.261H33.769
		V7.94H36.745z" />
	<path d="M35.056,19.084c0,0,0.644-4.608,5.259-4.608c4.614,0,4.556,4.608,4.556,4.608H35.056" />
	<path d="M27.421,15.817c0.06-0.146,0.121-0.293,0.187-0.441c0.313-0.464,0.586-0.984,0.805-1.559
		c0.836-1.408,2.031-2.849,3.731-3.991c0.438,0.378,1.002,0.614,1.626,0.614h3.265c-5.185,1.177-7.14,5.211-7.873,8.086
		c-0.373-0.912-0.896-1.821-1.644-2.611C27.485,15.882,27.453,15.85,27.421,15.817" />
	<path d="M49.899,11.521c-0.609-0.696-1.297-1.293-2.047-1.805c-0.451,0.447-1.071,0.724-1.757,0.724h-2.781
		c8.662,2.038,7.281,12.631,7.281,12.631H35.114c0,4.927,4.144,5.203,5.074,5.203c0.117,0,0.185-0.004,0.185-0.004
		c4.966,0,4.789-3.214,4.789-3.214h5.259c0,7.502-7.905,7.954-9.813,7.954c-0.262,0-0.411-0.009-0.411-0.009
		c-6.474,0-9.31-3.181-10.547-6.185c-0.285,1.132-0.722,2.111-1.262,2.967c0.375,0.591,0.807,1.172,1.321,1.724
		c2.463,2.639,5.971,3.982,10.428,3.994c0.09,0.003,0.251,0.009,0.471,0.009c5.68,0,12.313-2.738,12.313-10.454
		c0-0.277-0.045-0.543-0.128-0.791c0.144-0.265,0.24-0.558,0.281-0.87C53.113,23.102,53.967,16.153,49.899,11.521 M40.373,25.771
		c-0.057,0-0.111,0.002-0.166,0.006c-0.512-0.001-0.922-0.077-1.25-0.205h3.008C41.582,25.691,41.048,25.771,40.373,25.771" />
	<path d="M28.718,21.581c0,0-0.175,2.547,0.933,5.236c-0.285,1.133-0.723,2.111-1.263,2.967c-0.613-0.966-1.063-1.962-1.381-2.917
		c0.325-0.94,0.531-2.02,0.531-3.307c0,0,0.136-2.618-1.008-4.745c0.177-0.889,0.455-1.919,0.891-2.999
		c0.032,0.032,0.064,0.065,0.097,0.098c0.747,0.79,1.271,1.7,1.644,2.612C28.718,20.266,28.718,21.581,28.718,21.581" />
	<path d="M27.607,15.375c0.095-0.216,0.196-0.434,0.305-0.652c0.149-0.298,0.319-0.602,0.5-0.907
		C28.192,14.392,27.922,14.912,27.607,15.375" />
	<path d="M33.77,10.44c-0.624,0-1.188-0.237-1.626-0.615c1.243-0.836,2.759-1.507,4.602-1.885h6.803
		c1.618,0.336,3.059,0.926,4.306,1.777c-0.452,0.446-1.072,0.723-1.758,0.723h-2.78c-3.118-0.339-1.955-0.339-3.118-0.339
		c-1.172,0-2.218,0.125-3.163,0.339H33.77z" />
</svg>
