<svg xmlns="http://www.w3.org/2000/svg" viewBox="0 0 48.331 46.196">
	<path d="M8.133,3c3.106,0,5.016,2.024,5.074,4.683c0,2.607-1.968,4.686-5.129,4.686H8.015C4.972,12.369,3,10.287,3,7.683
		C3,5.024,5.03,3,8.133,3 M34.883,15.436c5.97,0,10.448,3.875,10.448,12.208v15.554h-9.073V28.684c0-3.646-1.316-6.134-4.595-6.134
		c-2.514,0-4.003,1.679-4.657,3.299c-0.241,0.58-0.3,1.388-0.3,2.196v15.152h-9.073c0,0,0.12-24.581,0-27.123h9.073v3.845
		C27.911,18.072,30.063,15.436,34.883,15.436 M12.614,43.197H3.538V16.076h9.076V43.197z M8.133,0C3.497,0,0,3.303,0,7.683
		c0,2.255,0.913,4.225,2.423,5.606c-1.105,0.443-1.885,1.523-1.885,2.786v27.123c0,1.655,1.343,3,3,3h9.076
		c1.05,0,1.974-0.54,2.51-1.356c0.11,0.168,0.238,0.327,0.383,0.472c0.563,0.565,1.328,0.885,2.126,0.885h9.073c1.656,0,3-1.345,3-3
		V28.045c0-0.792,0.072-1.049,0.082-1.076c0.381-0.94,1.012-1.419,1.875-1.419c0.596,0,1.595,0,1.595,3.134v14.514
		c0,1.655,1.343,3,3,3h9.073c1.656,0,3-1.345,3-3V27.644c0-11.213-6.947-15.208-13.448-15.208c-2.562,0-4.567,0.611-6.124,1.451
		c-0.537-0.503-1.259-0.812-2.053-0.812h-9.073c-0.82,0-1.605,0.336-2.171,0.93c-0.126,0.132-0.239,0.275-0.338,0.426
		c-0.332-0.506-0.813-0.905-1.38-1.136c1.535-1.381,2.463-3.353,2.463-5.612c0-0.022,0-0.044-0.001-0.066
		C16.109,3.203,12.713,0,8.133,0" />
</svg>
